<svg width="492" height="115" viewBox="0 0 492 115" fill="none" xmlns="http://www.w3.org/2000/svg">
<g filter="url(#filter0_d_5_2)">
<path d="M44.1624 79.28C44.1624 76.848 44.1624 74 44.1624 70.736C44.2264 67.408 44.2584 63.984 44.2584 60.464C44.2584 56.944 44.2584 53.648 44.2584 50.576C44.1944 48.72 44.1304 46.256 44.0664 43.184C44.0664 40.112 44.0024 36.88 43.8744 33.488C43.8104 30.032 43.7144 26.896 43.5864 24.08C43.5224 22.224 44.0984 20.624 45.3144 19.28C46.5944 17.936 48.1624 17.2 50.0184 17.072H50.4984C59.3304 16.944 71.2344 16.944 86.2104 17.072C88.0024 17.072 89.5704 17.744 90.9144 19.088C92.3224 20.56 92.9624 22.192 92.8344 23.984C92.7704 25.712 92.0984 27.248 90.8184 28.592C89.6024 29.872 88.0024 30.512 86.0184 30.512C74.1144 30.384 64.5144 30.352 57.2184 30.416C57.3464 34.512 57.4424 38.8 57.5064 43.28C66.5304 43.28 74.8504 43.184 82.4664 42.992C84.7064 42.992 86.3704 43.664 87.4584 45.008C88.6104 46.288 89.1864 47.824 89.1864 49.616C89.2504 51.344 88.7384 52.912 87.6504 54.32C86.6264 55.664 85.0264 56.368 82.8504 56.432C75.1704 56.56 66.7544 56.656 57.6024 56.72V79.28C57.6024 81.072 57.1544 82.512 56.2584 83.6C55.3624 84.624 54.2424 85.328 52.8984 85.712C51.5544 86.032 50.2104 86.032 48.8664 85.712C47.5224 85.328 46.4024 84.624 45.5064 83.6C44.6104 82.512 44.1624 81.072 44.1624 79.28ZM113.044 80.528C112.98 82.704 112.244 84.336 110.836 85.424C109.492 86.512 107.924 87.024 106.132 86.96C104.404 86.96 102.868 86.416 101.524 85.328C100.244 84.176 99.6039 82.512 99.6039 80.336C99.7319 80.336 99.7639 71.12 99.6999 52.688L99.6039 23.312C99.6039 21.52 100.052 20.112 100.948 19.088C101.844 18 102.964 17.296 104.308 16.976C105.652 16.592 106.996 16.592 108.34 16.976C109.684 17.296 110.804 18 111.7 19.088C112.596 20.112 113.044 21.52 113.044 23.312C113.044 28.432 113.076 34.8 113.14 42.416C113.14 45.296 113.14 48.496 113.14 52.016C113.14 55.472 113.14 58.992 113.14 62.576C113.14 66.096 113.108 69.424 113.044 72.56C113.044 75.696 113.044 78.352 113.044 80.528ZM147.506 86.864C142.386 86.864 137.906 85.776 134.066 83.6C130.226 81.424 127.282 78.512 125.234 74.864C123.25 71.216 122.258 67.184 122.258 62.768C122.258 57.2 123.282 52.368 125.33 48.272C127.378 44.24 130.322 41.04 134.162 38.672C138.002 36.304 142.354 35.12 147.218 35.12C152.21 35.12 156.498 36.144 160.082 38.192C163.602 40.24 166.258 43.024 168.05 46.544C169.842 50 170.738 53.872 170.738 58.16C170.738 60.336 170.034 62.032 168.626 63.248C167.218 64.464 165.33 65.168 162.962 65.36C158.162 65.808 153.906 66.032 150.194 66.032C146.674 66.032 142.898 65.936 138.866 65.744L135.506 65.648C135.89 68.784 137.106 71.248 139.154 73.04C141.266 74.768 144.434 75.568 148.658 75.44C150.578 75.376 152.114 75.152 153.266 74.768C154.418 74.32 155.442 73.68 156.338 72.848C157.298 71.888 158.194 71.088 159.026 70.448C159.858 69.744 161.01 69.392 162.482 69.392C164.146 69.392 165.522 69.968 166.61 71.12C167.762 72.208 168.338 73.488 168.338 74.96C168.338 77.008 167.314 78.96 165.266 80.816C163.218 82.672 160.562 84.144 157.298 85.232C154.098 86.32 150.834 86.864 147.506 86.864ZM135.698 55.856C139.474 56.368 143.666 56.56 148.274 56.432C152.69 56.368 155.922 56.08 157.97 55.568C157.842 52.816 157.01 50.608 155.474 48.944C154.002 47.28 151.314 46.48 147.41 46.544C144.146 46.608 141.49 47.344 139.442 48.752C137.394 50.16 136.146 52.528 135.698 55.856ZM202.262 83.312L194.486 72.368C192.054 75.888 189.846 79.376 187.862 82.832C186.902 84.368 185.75 85.36 184.406 85.808C183.062 86.256 181.718 86.288 180.374 85.904C179.03 85.52 177.878 84.816 176.918 83.792C175.958 82.768 175.35 81.552 175.094 80.144C174.902 78.736 175.254 77.264 176.15 75.728C179.03 70.864 182.198 65.776 185.654 60.464L174.806 46.64C173.718 45.232 173.174 43.824 173.174 42.416C173.238 40.944 173.654 39.632 174.422 38.48C175.254 37.328 176.278 36.464 177.494 35.888C178.774 35.312 180.118 35.152 181.526 35.408C182.934 35.664 184.214 36.496 185.366 37.904L193.91 48.752L201.302 38C202.326 36.592 203.51 35.76 204.854 35.504C206.262 35.184 207.606 35.312 208.886 35.888C210.166 36.4 211.222 37.232 212.054 38.384C212.95 39.472 213.43 40.752 213.494 42.224C213.558 43.632 213.046 45.072 211.958 46.544L202.55 60.176L213.302 75.344C214.326 76.816 214.774 78.256 214.646 79.664C214.518 81.072 214.006 82.352 213.11 83.504C212.214 84.592 211.094 85.392 209.75 85.904C208.47 86.352 207.158 86.384 205.814 86C204.47 85.68 203.286 84.784 202.262 83.312ZM242.943 86.864C237.823 86.864 233.343 85.776 229.503 83.6C225.663 81.424 222.719 78.512 220.671 74.864C218.687 71.216 217.695 67.184 217.695 62.768C217.695 57.2 218.719 52.368 220.767 48.272C222.815 44.24 225.759 41.04 229.599 38.672C233.439 36.304 237.791 35.12 242.655 35.12C247.647 35.12 251.935 36.144 255.519 38.192C259.039 40.24 261.695 43.024 263.487 46.544C265.279 50 266.175 53.872 266.175 58.16C266.175 60.336 265.471 62.032 264.063 63.248C262.655 64.464 260.767 65.168 258.399 65.36C253.599 65.808 249.343 66.032 245.631 66.032C242.111 66.032 238.335 65.936 234.303 65.744L230.943 65.648C231.327 68.784 232.543 71.248 234.591 73.04C236.703 74.768 239.871 75.568 244.095 75.44C246.015 75.376 247.551 75.152 248.703 74.768C249.855 74.32 250.879 73.68 251.775 72.848C252.735 71.888 253.631 71.088 254.463 70.448C255.295 69.744 256.447 69.392 257.919 69.392C259.583 69.392 260.959 69.968 262.047 71.12C263.199 72.208 263.775 73.488 263.775 74.96C263.775 77.008 262.751 78.96 260.703 80.816C258.655 82.672 255.999 84.144 252.735 85.232C249.535 86.32 246.271 86.864 242.943 86.864ZM231.135 55.856C234.911 56.368 239.103 56.56 243.711 56.432C248.127 56.368 251.359 56.08 253.407 55.568C253.279 52.816 252.447 50.608 250.911 48.944C249.439 47.28 246.751 46.48 242.847 46.544C239.583 46.608 236.927 47.344 234.879 48.752C232.831 50.16 231.583 52.528 231.135 55.856ZM276.562 83.984C275.218 82.704 274.546 81.168 274.546 79.376C274.482 73.04 274.45 68.048 274.45 64.4C274.322 63.632 274.322 62.896 274.45 62.192C274.386 55.088 274.354 48.656 274.354 42.896C274.354 40.4 274.994 38.512 276.274 37.232C277.618 35.888 279.218 35.216 281.074 35.216C282.418 35.216 283.634 35.6 284.722 36.368C285.874 37.072 286.706 38.352 287.218 40.208C289.778 38.8 293.618 37.2 298.738 35.408C300.722 34.704 302.418 34.8 303.826 35.696C305.234 36.528 306.194 37.744 306.706 39.344C307.282 40.88 307.282 42.416 306.706 43.952C306.194 45.488 304.946 46.608 302.962 47.312C297.074 49.36 292.05 51.376 287.89 53.36C287.634 55.408 287.602 58.32 287.794 62.096C287.858 66.128 287.922 71.824 287.986 79.184C287.986 81.168 287.314 82.8 285.97 84.08C284.69 85.296 283.154 85.936 281.362 86C279.57 86.064 277.97 85.392 276.562 83.984ZM341.498 86.288C338.554 86.416 335.034 86.384 330.938 86.192C330.49 86.192 329.754 86.16 328.73 86.096C327.706 86.096 326.65 86.064 325.562 86C324.474 85.936 323.61 85.872 322.97 85.808C322.714 85.872 322.458 85.904 322.202 85.904C321.05 85.904 320.026 85.648 319.13 85.136C317.978 84.56 317.05 83.728 316.346 82.64C315.642 81.552 315.29 80.336 315.29 78.992C315.29 78.544 315.354 78.096 315.482 77.648C315.482 74.64 315.514 69.296 315.578 61.616C315.642 56.496 315.642 51.92 315.578 47.888C315.514 43.856 315.418 40.08 315.29 36.56C315.162 32.976 314.938 29.36 314.618 25.712C314.49 23.92 314.938 22.352 315.962 21.008C316.986 19.6 318.33 18.736 319.994 18.416C320.954 17.776 322.042 17.424 323.258 17.36C323.834 17.36 324.634 17.36 325.658 17.36C326.746 17.296 327.77 17.264 328.73 17.264C329.754 17.2 330.49 17.136 330.938 17.072C334.394 16.944 337.37 16.976 339.866 17.168C347.61 17.616 353.786 19.568 358.394 23.024C362.298 25.968 364.602 29.648 365.306 34.064C365.882 37.712 365.274 41.712 363.482 46.064C362.97 47.28 362.298 48.144 361.466 48.656C366.202 51.152 369.242 54.928 370.586 59.984C371.738 64.4 371.674 68.208 370.394 71.408C369.178 74.544 366.746 77.424 363.098 80.048C357.722 83.824 350.522 85.904 341.498 86.288ZM340.922 73.136C347.322 72.88 352.154 71.568 355.418 69.2C356.89 68.176 357.722 67.344 357.914 66.704C358.17 66.064 358.074 64.912 357.626 63.248C357.05 60.816 354.17 59.312 348.986 58.736C346.618 58.416 343.482 58.32 339.578 58.448C334.138 58.512 331.002 58.544 330.17 58.544L328.826 58.352C328.762 67.44 328.73 72.272 328.73 72.848C329.946 72.912 330.906 72.976 331.61 73.04C335.322 73.168 338.426 73.2 340.922 73.136ZM342.458 44.336C347.45 43.888 350.394 42.608 351.29 40.496C352.058 38.768 352.346 37.392 352.154 36.368C352.026 35.664 351.514 34.928 350.618 34.16C348.058 32.304 344.218 31.216 339.098 30.896C336.986 30.768 334.426 30.768 331.418 30.896C330.65 30.896 329.626 30.928 328.346 30.992C328.538 34.896 328.698 39.152 328.826 43.76C334.586 44.4 339.13 44.592 342.458 44.336ZM379.905 79.472C379.713 65.904 379.809 53.2 380.193 41.36C380.257 39.568 380.737 38.16 381.633 37.136C382.593 36.112 383.745 35.472 385.089 35.216C386.433 34.896 387.777 34.96 389.121 35.408C390.465 35.792 391.553 36.528 392.385 37.616C393.281 38.704 393.697 40.144 393.633 41.936C393.249 53.904 393.153 66.352 393.345 79.28C393.345 81.456 392.673 83.12 391.329 84.272C390.049 85.36 388.513 85.936 386.721 86C384.993 86 383.425 85.456 382.017 84.368C380.673 83.28 379.969 81.648 379.905 79.472ZM391.329 18.512C392.609 19.728 393.313 21.072 393.441 22.544C393.569 23.952 393.281 25.296 392.577 26.576C391.873 27.792 390.881 28.784 389.601 29.552C388.385 30.256 387.041 30.544 385.569 30.416C384.161 30.288 382.817 29.584 381.537 28.304C380.257 27.024 379.553 25.648 379.425 24.176C379.297 22.704 379.585 21.36 380.289 20.144C381.057 18.928 382.049 17.968 383.265 17.264C384.481 16.496 385.793 16.176 387.201 16.304C388.673 16.432 390.049 17.168 391.329 18.512ZM421.964 86.192C420.684 86.192 419.436 85.776 418.22 84.944C417.516 84.688 416.844 84.368 416.204 83.984L413.708 82.544C411.148 81.072 409.228 79.696 407.948 78.416C406.86 77.008 406.188 75.632 405.932 74.288C405.676 72.88 405.516 70.832 405.452 68.144V66.224C405.388 64.368 405.356 60.048 405.356 53.264C405.356 50.512 405.388 48.432 405.452 47.024H403.628C402.028 47.024 400.62 46.48 399.404 45.392C398.252 44.24 397.676 42.8 397.676 41.072C397.676 39.28 398.284 37.808 399.5 36.656C400.716 35.44 402.124 34.832 403.724 34.832H405.452L405.548 30.704V27.728C405.612 25.68 406.284 24.112 407.564 23.024C408.908 21.872 410.444 21.296 412.172 21.296C413.964 21.296 415.532 21.904 416.876 23.12C418.284 24.336 418.988 26 418.988 28.112L418.796 34.64H422.348C424.652 34.64 426.38 35.248 427.532 36.464C428.684 37.68 429.26 39.216 429.26 41.072C429.26 42.864 428.652 44.4 427.436 45.68C426.22 46.896 424.428 47.504 422.06 47.504H418.508C418.508 50.128 418.476 52.08 418.412 53.36C418.348 54.704 418.316 56.624 418.316 59.12C418.316 63.216 418.444 66.768 418.7 69.776C418.956 70.032 419.116 70.16 419.18 70.16L420.14 70.832L420.908 71.216L421.772 71.696L422.54 72.08C423.692 72.592 424.684 73.168 425.516 73.808C427.5 75.152 428.492 76.944 428.492 79.184C428.492 80.976 427.852 82.608 426.572 84.08C425.292 85.488 423.756 86.192 421.964 86.192ZM454.219 86.672C451.403 86.672 448.651 86.32 445.963 85.616C443.339 84.912 441.131 83.92 439.339 82.64C437.995 81.552 436.779 80.112 435.691 78.32L435.019 77.168L434.155 75.632C433.579 74.544 433.291 73.552 433.291 72.656C433.291 70.992 433.963 69.552 435.307 68.336C436.715 67.056 438.283 66.416 440.011 66.416C442.187 66.416 443.915 67.376 445.195 69.296L446.347 71.216L446.923 72.368C447.307 73.136 448.043 73.744 449.131 74.192C450.795 74.704 452.235 74.96 453.451 74.96C454.347 74.96 455.467 74.864 456.811 74.672C460.203 73.968 461.963 72.912 462.091 71.504V71.12C462.091 70.352 461.739 69.616 461.035 68.912C460.203 68.144 458.283 67.152 455.275 65.936L451.051 64.304C448.683 63.472 446.987 62.8 445.963 62.288C441.291 60.24 438.251 57.744 436.843 54.8C435.883 52.88 435.403 50.992 435.403 49.136C435.403 47.6 435.723 46.16 436.363 44.816C437.643 41.68 440.619 39.152 445.291 37.232C448.363 36.016 451.531 35.408 454.795 35.408C455.435 35.408 456.395 35.472 457.675 35.6C463.307 36.176 468.235 38.384 472.459 42.224C473.803 43.376 474.475 44.848 474.475 46.64C474.475 48.304 473.867 49.808 472.651 51.152C471.499 52.496 470.059 53.168 468.331 53.168C466.987 53.168 465.643 52.72 464.299 51.824L461.995 50.096C460.907 49.328 460.107 48.848 459.595 48.656C457.675 48.016 455.851 47.696 454.123 47.696C452.523 47.696 451.147 47.856 449.995 48.176C449.163 48.496 448.747 48.944 448.747 49.52C448.747 49.904 448.971 50.224 449.419 50.48C449.803 50.736 450.475 51.088 451.435 51.536C452.587 52.048 454.251 52.656 456.427 53.36C457.899 53.808 459.403 54.384 460.939 55.088C461.963 55.536 463.115 56.016 464.395 56.528C465.611 57.104 466.891 57.872 468.235 58.832C470.347 60.24 472.011 62 473.227 64.112C474.443 66.16 475.051 68.464 475.051 71.024C475.051 71.856 475.019 72.496 474.955 72.944C474.379 76.912 472.555 79.984 469.483 82.16C466.475 84.336 462.859 85.744 458.635 86.384C457.227 86.576 455.755 86.672 454.219 86.672Z" fill="white"/>
<ellipse cx="14.799" cy="60.6449" rx="10.799" ry="9.62617" fill="#614EDA"/>
<ellipse cx="385.637" cy="21.028" rx="10.799" ry="9.62617" fill="#614EDA"/>
<path d="M92.6166 103L433.785 102.03" stroke="#614EDA" stroke-width="8" stroke-linecap="round"/>
</g>
<defs>
<filter id="filter0_d_5_2" x="0" y="11.4019" width="479.051" height="103.598" filterUnits="userSpaceOnUse" color-interpolation-filters="sRGB">
<feFlood flood-opacity="0" result="BackgroundImageFix"/>
<feColorMatrix in="SourceAlpha" type="matrix" values="0 0 0 0 0 0 0 0 0 0 0 0 0 0 0 0 0 0 127 0" result="hardAlpha"/>
<feOffset dy="4"/>
<feGaussianBlur stdDeviation="2"/>
<feComposite in2="hardAlpha" operator="out"/>
<feColorMatrix type="matrix" values="0 0 0 0 0 0 0 0 0 0 0 0 0 0 0 0 0 0 0.25 0"/>
<feBlend mode="normal" in2="BackgroundImageFix" result="effect1_dropShadow_5_2"/>
<feBlend mode="normal" in="SourceGraphic" in2="effect1_dropShadow_5_2" result="shape"/>
</filter>
</defs>
</svg>
